<svg xmlns="http://www.w3.org/2000/svg" viewBox="0 0 172.91 269.29"><defs><style>.cls-1{fill:#e9b15d;}.cls-2,.cls-3,.cls-4{fill:#fff8ef;}.cls-3{font-size:11.3px;}.cls-3,.cls-4{font-family:Montserrat-SemiBold, Montserrat;font-weight:700;}.cls-4{font-size:6px;}.cls-5{letter-spacing:0em;}.cls-6{letter-spacing:-0.01em;}.cls-7{letter-spacing:-0.01em;}.cls-8{letter-spacing:0em;}.cls-9{letter-spacing:0.01em;}.cls-10{letter-spacing:-0.01em;}.cls-11{letter-spacing:0.01em;}</style></defs><title>Uno de Oro5b</title><g id="oro"><g id="_1_oro" data-name="1 oro"><rect class="cls-1" x="-0.05" y="0.12" width="172.97" height="268.61" rx="12" ry="12"/><path class="cls-2" d="M23.19,12.1a8.1,8.1,0,1,1-8.12,8.1,8.12,8.12,0,0,1,8.12-8.1m0-1a9.1,9.1,0,1,0,9.13,9.1,9.11,9.11,0,0,0-9.13-9.1Z"/><text class="cls-3" transform="translate(21.13 24.4)">1</text><text class="cls-4" transform="translate(101.77 21.08)">U<tspan class="cls-5" x="4.73" y="0">n</tspan><tspan x="8.87" y="0">o de O</tspan><tspan class="cls-6" x="28.96" y="0">r</tspan><tspan x="31.42" y="0">os</tspan></text><text class="cls-4" transform="translate(70.7 247.65) rotate(180)">U<tspan class="cls-5" x="4.73" y="0">n</tspan><tspan x="8.87" y="0">o de O</tspan><tspan class="cls-7" x="28.96" y="0">r</tspan><tspan x="31.42" y="0">os</tspan></text><text class="cls-4" transform="translate(18.33 213.13) rotate(-90)"><tspan class="cls-8">C</tspan><tspan x="4.33" y="0">ana</tspan><tspan class="cls-9" x="15.73" y="0">r</tspan><tspan x="18.34" y="0">y B</tspan><tspan class="cls-10" x="28.03" y="0">o</tspan><tspan x="31.85" y="0">a</tspan><tspan class="cls-6" x="35.5" y="0">r</tspan><tspan x="37.96" y="0">d Ga</tspan><tspan class="cls-11" x="52.01" y="0">m</tspan><tspan x="58.36" y="0">e</tspan></text><text class="cls-4" transform="translate(153.94 56) rotate(90)"><tspan class="cls-8">C</tspan><tspan x="4.33" y="0">ana</tspan><tspan class="cls-9" x="15.73" y="0">r</tspan><tspan x="18.34" y="0">y B</tspan><tspan class="cls-10" x="28.03" y="0">o</tspan><tspan x="31.85" y="0">a</tspan><tspan class="cls-6" x="35.5" y="0">r</tspan><tspan x="37.96" y="0">d Ga</tspan><tspan class="cls-11" x="52.01" y="0">m</tspan><tspan x="58.36" y="0">e</tspan></text><path class="cls-2" d="M86.28,106.89A28.07,28.07,0,1,0,114.79,135,28.28,28.28,0,0,0,86.28,106.89Zm20.15,47.91-13.94-4.72L86.27,163l-6.45-13-13.7,4.81,4.82-13.65L57.77,135l13-5.8-4.66-14L80,119.84l6.24-13,6.37,13,13.79-4.77-4.86,13.57,13.2,6.27-13.14,6.12Z"/><path class="cls-2" d="M86.28,121A13.91,13.91,0,1,0,100.41,135,14,14,0,0,0,86.28,121Zm0,22.87a9,9,0,1,1,9.1-9A9,9,0,0,1,86.28,143.91Z"/><ellipse class="cls-2" cx="86.28" cy="134.95" rx="4.09" ry="4.02"/><path class="cls-2" d="M23.21,35.05a9,9,0,1,0,9.11,9A9,9,0,0,0,23.21,35.05Zm6.44,15.31-4.46-1.51L23.2,53l-2.06-4.17-4.37,1.54L18.31,46,14.1,44l4.16-1.85-1.49-4.49,4.44,1.51,2-4.13,2,4.15,4.41-1.53L28.1,42l4.21,2-4.19,2Z"/><path class="cls-2" d="M23.21,39.58A4.45,4.45,0,1,0,27.72,44,4.48,4.48,0,0,0,23.21,39.58Zm0,7.3A2.86,2.86,0,1,1,26.11,44,2.88,2.88,0,0,1,23.21,46.88Z"/><ellipse class="cls-2" cx="23.21" cy="44.02" rx="1.31" ry="1.29"/><path class="cls-2" d="M149.27,240.84a8.11,8.11,0,1,1-8.12,8.11,8.12,8.12,0,0,1,8.12-8.11m0-1a9.11,9.11,0,1,0,9.12,9.11,9.11,9.11,0,0,0-9.12-9.11Z"/><text class="cls-3" transform="translate(151.33 244.75) rotate(180)">1</text><path class="cls-2" d="M149.26,234.09a9,9,0,1,0-9.11-9A9,9,0,0,0,149.26,234.09Zm-6.44-15.3,4.45,1.5,2-4.13,2.06,4.17,4.38-1.54-1.54,4.36,4.2,2L154.21,227l1.49,4.49L151.25,230l-2,4.13-2-4.15-4.4,1.53,1.55-4.34-4.22-2,4.2-2Z"/><path class="cls-2" d="M149.26,229.57a4.45,4.45,0,1,0-4.52-4.44A4.48,4.48,0,0,0,149.26,229.57Zm0-7.31a2.87,2.87,0,1,1-2.91,2.87A2.9,2.9,0,0,1,149.26,222.26Z"/><ellipse class="cls-2" cx="149.26" cy="225.13" rx="1.31" ry="1.29"/></g></g></svg>